<svg width="973" height="734" viewBox="0 0 973 734" fill="none" xmlns="http://www.w3.org/2000/svg">
<path fill-rule="evenodd" clip-rule="evenodd" d="M48.6191 594.166C-12.7472 516.731 -10.9021 400.927 31.2261 305.917C70.4694 217.412 169.276 175.71 256.162 126.101C345.072 75.3358 431.002 25.7897 531.466 20.2952C685.354 11.8789 908.635 -45.7349 963.783 87.4003C1020.52 224.375 799.493 336.568 718.52 471.875C668.182 555.988 675.5 676.735 585.115 720.155C496.033 762.948 408.415 686.948 315.989 665.243C222.427 643.271 105.795 666.314 48.6191 594.166Z" fill="#7A6BBD" fill-opacity="0.19"/>
<path d="M173.008 518.726L172.317 518.571C180.022 484.25 199.387 453.083 226.844 430.812C247.602 414.001 272.291 402.757 298.585 398.14C324.88 393.523 351.915 395.685 377.145 404.421C402.376 413.157 424.971 428.181 442.803 448.078C460.636 467.974 473.119 492.089 479.078 518.152L478.388 518.309C462.076 446.578 399.307 396.481 325.745 396.481C253.146 396.481 188.911 447.892 173.008 518.726Z" fill="#3F3D56"/>
<path d="M325.5 542C413.589 542 485 533.148 485 522.229C485 511.31 413.589 502.458 325.5 502.458C237.411 502.458 166 511.31 166 522.229C166 533.148 237.411 542 325.5 542Z" fill="#3F3D56"/>
<path d="M363.006 503.96C363.006 504.301 362.982 504.641 362.933 504.978C362.828 505.718 362.604 506.436 362.271 507.105C361.913 507.825 361.435 508.48 360.857 509.039C360.792 509.104 360.724 509.166 360.655 509.228C359.527 510.245 358.1 510.868 356.589 511.003C356.377 511.022 356.161 511.033 355.944 511.033C354.234 511.034 352.581 510.413 351.294 509.285C350.006 508.157 349.171 506.6 348.944 504.902C348.903 504.59 348.882 504.275 348.883 503.96C348.882 503.562 348.916 503.164 348.982 502.771C349.108 502.027 349.353 501.308 349.708 500.642C349.869 500.334 350.055 500.039 350.263 499.76C350.919 498.868 351.775 498.144 352.762 497.645C353.749 497.146 354.839 496.886 355.944 496.887C356.185 496.887 356.425 496.899 356.665 496.924C357.398 496.998 358.116 497.187 358.79 497.486C359.414 497.761 359.994 498.126 360.514 498.568C360.651 498.684 360.783 498.806 360.911 498.933C361.437 499.453 361.877 500.052 362.216 500.709C362.565 501.378 362.802 502.1 362.919 502.845C362.977 503.214 363.006 503.587 363.006 503.96Z" fill="#F2F2F2"/>
<path d="M358.773 500.69L358.761 502.822L360.89 502.834L360.901 500.702L358.773 500.69Z" fill="#CCCCCC"/>
<path d="M363.006 503.959C363.006 504.3 362.982 504.64 362.933 504.977L360.879 504.965L360.89 502.833L362.919 502.845C362.977 503.213 363.006 503.586 363.006 503.959Z" fill="#CCCCCC"/>
<path d="M362.271 507.105C361.913 507.825 361.435 508.479 360.858 509.039L360.867 507.098L362.271 507.105Z" fill="#CCCCCC"/>
<path d="M352.403 497.839L352.399 498.524L351.433 498.519C351.736 498.266 352.061 498.038 352.403 497.839Z" fill="#CCCCCC"/>
<path d="M356.665 496.924L356.656 498.548L354.527 498.536L354.535 497.029C354.999 496.934 355.471 496.887 355.944 496.887C356.185 496.887 356.426 496.899 356.665 496.924Z" fill="#CCCCCC"/>
<path d="M360.514 498.567L358.785 498.558L358.79 497.485C359.414 497.761 359.994 498.125 360.514 498.567Z" fill="#CCCCCC"/>
<path d="M350.264 499.759L350.258 500.645L349.708 500.642C349.87 500.334 350.055 500.038 350.264 499.759Z" fill="#CCCCCC"/>
<path d="M352.399 498.524L352.387 500.656L354.516 500.668L354.527 498.536L352.399 498.524Z" fill="#CCCCCC"/>
<path d="M356.656 498.547L356.644 500.679L358.773 500.691L358.784 498.559L356.656 498.547Z" fill="#CCCCCC"/>
<path d="M362.216 500.709L360.902 500.702L360.911 498.933C361.437 499.452 361.877 500.051 362.216 500.709Z" fill="#CCCCCC"/>
<path d="M350.259 500.644L350.247 502.776L352.376 502.788L352.387 500.656L350.259 500.644Z" fill="#CCCCCC"/>
<path d="M354.518 500.667L354.506 502.799L356.635 502.81L356.646 500.678L354.518 500.667Z" fill="#CCCCCC"/>
<path d="M352.376 502.788L352.364 504.92L354.493 504.931L354.504 502.8L352.376 502.788Z" fill="#CCCCCC"/>
<path d="M356.635 502.81L356.623 504.942L358.752 504.954L358.763 502.822L356.635 502.81Z" fill="#CCCCCC"/>
<path d="M350.248 502.777L350.236 504.908L348.944 504.902C348.903 504.589 348.882 504.275 348.883 503.96C348.882 503.561 348.916 503.163 348.982 502.771L350.248 502.777Z" fill="#CCCCCC"/>
<path d="M350.236 504.908L350.224 507.04L352.353 507.052L352.364 504.92L350.236 504.908Z" fill="#CCCCCC"/>
<path d="M354.493 504.931L354.482 507.063L356.61 507.074L356.621 504.943L354.493 504.931Z" fill="#CCCCCC"/>
<path d="M358.75 504.954L358.739 507.086L360.867 507.097L360.879 504.966L358.75 504.954Z" fill="#CCCCCC"/>
<path d="M350.224 507.04L350.219 508.1C349.976 507.765 349.763 507.409 349.583 507.036L350.224 507.04Z" fill="#CCCCCC"/>
<path d="M352.353 507.052L352.342 509.184L354.47 509.195L354.482 507.063L352.353 507.052Z" fill="#CCCCCC"/>
<path d="M356.612 507.074L356.6 509.206L358.729 509.218L358.74 507.086L356.612 507.074Z" fill="#CCCCCC"/>
<path d="M352.342 509.183L352.336 510.041C351.922 509.793 351.533 509.504 351.178 509.177L352.342 509.183Z" fill="#CCCCCC"/>
<path d="M356.598 509.207L356.589 511.002C356.377 511.022 356.161 511.032 355.944 511.032C355.446 511.033 354.949 510.98 354.461 510.875L354.471 509.195L356.598 509.207Z" fill="#CCCCCC"/>
<path d="M360.655 509.228C360.082 509.743 359.429 510.161 358.721 510.466L358.727 509.217L360.655 509.228Z" fill="#CCCCCC"/>
<path d="M426.683 412.152L435.193 445.297C435.193 445.297 435.508 468.656 437.399 477.81C439.29 486.964 445.593 509.061 445.593 509.061L453.158 510.323L451.582 479.388C451.582 479.388 451.582 460.764 450.006 456.661C448.43 452.557 445.278 410.574 445.278 410.574L426.683 412.152Z" fill="#A0616A"/>
<path opacity="0.1" d="M426.683 412.152L435.193 445.297C435.193 445.297 435.508 468.656 437.399 477.81C439.29 486.964 445.593 509.061 445.593 509.061L453.158 510.323L451.582 479.388C451.582 479.388 451.582 460.764 450.006 456.661C448.43 452.557 445.278 410.574 445.278 410.574L426.683 412.152Z" fill="black"/>
<path d="M450.276 273.23H450.276C439.77 273.23 431.254 282.696 431.254 294.373V309.209H435.809L438.447 303.712L437.788 309.209H467.07L469.468 304.212L468.868 309.209H472.165V297.56C472.165 284.123 462.365 273.23 450.276 273.23Z" fill="#2F2E41"/>
<path d="M418.646 406.943C418.646 406.943 414.864 423.042 419.907 424.62C424.949 426.199 423.689 406.943 423.689 406.943H418.646Z" fill="#A0616A"/>
<path d="M424.95 325.187L422.428 328.028L423.058 382.638L417.385 408.522L429.992 409.785L436.296 357.7L434.405 331.184L424.95 325.187Z" fill="#3F3D56"/>
<path opacity="0.1" d="M424.95 325.187L422.428 328.028L423.058 382.638L417.385 408.522L429.992 409.785L436.296 357.7L434.405 331.184L424.95 325.187Z" fill="black"/>
<path d="M448.593 307.136C456.072 307.136 462.135 301.064 462.135 293.573C462.135 286.083 456.072 280.01 448.593 280.01C441.114 280.01 435.051 286.083 435.051 293.573C435.051 301.064 441.114 307.136 448.593 307.136Z" fill="#A0616A"/>
<path d="M440.829 301.711C440.829 301.711 444.801 322.326 442.996 324.496C441.19 326.666 462.135 320.518 462.135 320.518C462.135 320.518 455.273 306.412 458.885 298.456L440.829 301.711Z" fill="#A0616A"/>
<path d="M475.062 392.107C475.062 392.107 478.844 408.206 473.801 409.784C468.759 411.363 470.019 392.107 470.019 392.107H475.062Z" fill="#A0616A"/>
<path d="M445.909 408.364C445.909 408.364 440.551 440.562 440.866 445.297C441.181 450.032 440.866 450.663 440.866 450.663C440.866 450.663 435.508 464.552 433.932 472.444C432.356 480.335 428.889 490.437 428.889 490.437C428.889 490.437 424.792 499.591 428.259 499.591C431.726 499.591 436.453 498.328 436.453 498.328C436.441 494.682 437.663 491.139 439.92 488.279C443.702 483.492 455.049 461.08 455.049 458.239C455.049 455.398 456.94 447.191 456.94 447.191L464.189 412.152L445.909 408.364Z" fill="#A0616A"/>
<path d="M423.846 386.899C423.846 386.899 418.488 414.046 423.216 414.677C427.944 415.308 434.562 410.573 443.072 415.94C451.582 421.306 465.764 420.043 465.764 420.043C465.764 420.043 475.535 395.106 466.71 389.108C457.885 383.111 423.846 386.899 423.846 386.899Z" fill="#2F2E41"/>
<path d="M429.835 495.802C431.222 495.198 432.746 494.98 434.247 495.171C435.683 495.384 437.147 495.046 438.344 494.224C438.344 494.224 435.823 503.378 436.138 506.851C436.453 510.323 435.193 525.159 428.574 523.581C421.955 522.003 420.064 517.268 422.586 509.06C425.107 500.853 424.477 491.383 424.477 491.383C424.477 491.383 429.077 486.625 429.928 487.268C430.78 487.911 429.835 495.802 429.835 495.802Z" fill="#2F2E41"/>
<path d="M450.951 507.482C450.951 507.482 447.8 500.538 444.017 506.851C440.235 513.164 439.92 514.742 439.92 514.742C439.92 514.742 429.204 524.528 436.768 525.475C444.333 526.422 450.321 525.159 450.321 523.581C450.321 522.003 454.103 522.318 454.418 521.056C454.733 519.793 453.788 508.113 453.788 508.113L450.951 507.482Z" fill="#2F2E41"/>
<path d="M458.043 312.245C458.043 312.245 444.805 314.77 443.23 314.454C442.875 314.392 442.516 314.354 442.155 314.34C439.073 314.2 436.017 314.959 433.358 316.525C428.969 319.079 422.428 323.623 422.428 328.028C422.428 334.657 430.938 346.021 430.938 346.021C430.938 346.021 423.058 373.168 423.689 375.693C424.319 378.218 418.961 386.741 422.428 389.582C425.895 392.423 458.988 389.582 464.977 392.423C470.965 395.264 468.128 354.544 468.128 354.544C468.128 354.544 484.202 317.611 476.008 314.139C473.356 313.015 471.067 312.156 469.185 311.508C467.372 310.883 465.453 310.626 463.54 310.753C461.626 310.879 459.758 311.386 458.043 312.245Z" fill="#3F3D56"/>
<path d="M470.334 314.454L477.566 315.651C477.566 315.651 480.735 318.873 480.735 320.452C480.735 322.03 480.105 390.213 479.159 392.423C478.214 394.632 467.813 393.685 467.813 393.685L469.704 354.859L470.334 314.454Z" fill="#3F3D56"/>
<path d="M455.684 279.054C453.774 276.591 450.957 275.031 447.812 275.031H447.439C440.238 275.031 434.401 281.557 434.401 289.607V289.607H436.813L437.203 286.636L437.774 289.607H452.084L453.283 287.094L452.983 289.607H455.798C457.112 296.141 455.225 302.675 450.136 309.209H454.932L457.329 304.183L456.73 309.209H465.871L467.67 297.648C467.67 288.991 462.647 281.65 455.684 279.054Z" fill="#2F2E41"/>
<path d="M458.312 280.272C462.247 280.272 465.436 277.077 465.436 273.136C465.436 269.195 462.247 266 458.312 266C454.377 266 451.187 269.195 451.187 273.136C451.187 277.077 454.377 280.272 458.312 280.272Z" fill="#2F2E41"/>
<path opacity="0.2" d="M275.755 522.229C286.003 522.229 294.311 519.574 294.311 516.298C294.311 513.022 286.003 510.367 275.755 510.367C265.507 510.367 257.199 513.022 257.199 516.298C257.199 519.574 265.507 522.229 275.755 522.229Z" fill="black"/>
<path d="M279.063 375.193H272.847V517.047H279.063V375.193Z" fill="#3F3D56"/>
<path d="M367.403 322.954L367.403 322.906L362.181 322.878L356.958 322.85L351.736 322.822L346.513 322.794L341.291 322.765L336.068 322.737L330.846 322.709L325.623 322.681L320.401 322.653L315.178 322.625L309.956 322.597L304.732 322.724C302.975 322.853 301.231 323.119 299.515 323.519C299.512 323.52 299.509 323.52 299.505 323.521C299.49 323.524 299.475 323.528 299.459 323.532C299.123 323.611 298.788 323.695 298.455 323.784C298.433 323.789 298.41 323.795 298.388 323.802C297.262 324.105 296.153 324.467 295.065 324.886C294.8 324.988 294.537 325.093 294.274 325.202C292.706 325.85 291.189 326.615 289.737 327.492C289.614 327.565 289.492 327.64 289.371 327.717L289.036 327.926C287.159 329.119 285.402 330.494 283.792 332.03C283.488 332.318 283.191 332.612 282.899 332.913C281.343 334.508 279.947 336.253 278.73 338.121L278.508 343.35L283.731 343.379L283.759 338.148L288.981 338.176L288.953 343.407L294.176 343.435L294.204 338.204L299.426 338.232L299.398 343.463L304.621 343.491L304.649 338.26L309.871 338.289L309.843 343.519L315.066 343.547L315.094 338.317L320.316 338.345L320.288 343.575L325.511 343.604L325.539 338.373L330.761 338.401L330.733 343.632L335.956 343.66L335.984 338.429L341.206 338.457L341.178 343.688L346.401 343.716L346.429 338.485L351.651 338.514L351.623 343.744L356.846 343.772L356.874 338.542L362.096 338.57L362.068 343.8L367.291 343.828L367.319 338.598L370.035 338.612L370.063 333.382L370.091 328.151L370.119 322.969L367.403 322.954Z" fill="#3F3D56"/>
<path d="M275.943 343.336C275.221 345.027 274.638 346.773 274.199 348.558L278.48 348.581L278.508 343.35L275.943 343.336Z" fill="#3F3D56"/>
<path d="M283.731 343.379L283.703 348.609L288.925 348.638L288.953 343.407L283.731 343.379Z" fill="#3F3D56"/>
<path d="M294.176 343.435L294.148 348.666L299.37 348.694L299.398 343.463L294.176 343.435Z" fill="#3F3D56"/>
<path d="M304.621 343.491L304.593 348.722L309.815 348.75L309.843 343.519L304.621 343.491Z" fill="#3F3D56"/>
<path d="M315.066 343.547L315.038 348.778L320.26 348.806L320.288 343.575L315.066 343.547Z" fill="#3F3D56"/>
<path d="M325.511 343.603L325.483 348.834L330.705 348.862L330.733 343.631L325.511 343.603Z" fill="#3F3D56"/>
<path d="M335.956 343.66L335.928 348.89L341.15 348.918L341.178 343.688L335.956 343.66Z" fill="#3F3D56"/>
<path d="M346.401 343.716L346.373 348.946L351.595 348.974L351.623 343.744L346.401 343.716Z" fill="#3F3D56"/>
<path d="M356.846 343.772L356.818 349.003L362.04 349.031L362.068 343.8L356.846 343.772Z" fill="#3F3D56"/>
<path d="M369.849 349.073C369.94 348.086 369.988 347.087 369.995 346.076L370.007 343.843L367.291 343.829L367.263 349.059L369.849 349.073Z" fill="#3F3D56"/>
<path d="M278.48 348.581L278.452 353.812L283.675 353.84L283.703 348.609L278.48 348.581Z" fill="#3F3D56"/>
<path d="M288.925 348.637L288.897 353.868L294.12 353.896L294.148 348.665L288.925 348.637Z" fill="#3F3D56"/>
<path d="M299.37 348.694L299.342 353.924L304.565 353.952L304.593 348.722L299.37 348.694Z" fill="#3F3D56"/>
<path d="M309.815 348.75L309.787 353.98L315.01 354.009L315.038 348.778L309.815 348.75Z" fill="#3F3D56"/>
<path d="M320.26 348.806L320.232 354.037L325.455 354.065L325.483 348.834L320.26 348.806Z" fill="#3F3D56"/>
<path d="M330.705 348.862L330.677 354.093L335.9 354.121L335.928 348.89L330.705 348.862Z" fill="#3F3D56"/>
<path d="M341.15 348.918L341.122 354.149L346.345 354.177L346.373 348.946L341.15 348.918Z" fill="#3F3D56"/>
<path d="M351.595 348.974L351.567 354.205L356.79 354.233L356.818 349.003L351.595 348.974Z" fill="#3F3D56"/>
<path d="M362.04 349.031L362.012 354.262L367.235 354.29L367.263 349.059L362.04 349.031Z" fill="#3F3D56"/>
<path d="M273.23 353.784L273.202 359.014L278.424 359.042L278.452 353.812L273.23 353.784Z" fill="#3F3D56"/>
<path d="M283.675 353.84L283.647 359.07L288.869 359.098L288.897 353.868L283.675 353.84Z" fill="#3F3D56"/>
<path d="M294.12 353.896L294.092 359.126L299.314 359.155L299.342 353.924L294.12 353.896Z" fill="#3F3D56"/>
<path d="M304.565 353.952L304.537 359.183L309.759 359.211L309.787 353.98L304.565 353.952Z" fill="#3F3D56"/>
<path d="M315.01 354.009L314.982 359.239L320.204 359.267L320.232 354.037L315.01 354.009Z" fill="#3F3D56"/>
<path d="M325.455 354.065L325.427 359.295L330.649 359.324L330.677 354.093L325.455 354.065Z" fill="#3F3D56"/>
<path d="M335.9 354.121L335.872 359.352L341.094 359.38L341.122 354.149L335.9 354.121Z" fill="#3F3D56"/>
<path d="M346.345 354.177L346.317 359.408L351.539 359.436L351.567 354.205L346.345 354.177Z" fill="#3F3D56"/>
<path d="M356.79 354.233L356.762 359.464L361.984 359.492L362.012 354.261L356.79 354.233Z" fill="#3F3D56"/>
<path d="M368.953 354.299L367.235 354.29L367.207 359.429C367.925 357.769 368.509 356.053 368.953 354.299Z" fill="#3F3D56"/>
<path d="M278.424 359.042L278.396 364.273L283.619 364.301L283.647 359.07L278.424 359.042Z" fill="#3F3D56"/>
<path d="M288.869 359.098L288.841 364.329L294.064 364.357L294.092 359.127L288.869 359.098Z" fill="#3F3D56"/>
<path d="M299.314 359.155L299.286 364.385L304.509 364.413L304.537 359.183L299.314 359.155Z" fill="#3F3D56"/>
<path d="M309.759 359.211L309.731 364.441L314.954 364.47L314.982 359.239L309.759 359.211Z" fill="#3F3D56"/>
<path d="M320.204 359.267L320.176 364.498L325.399 364.526L325.427 359.296L320.204 359.267Z" fill="#3F3D56"/>
<path d="M330.649 359.324L330.621 364.554L335.844 364.582L335.872 359.352L330.649 359.324Z" fill="#3F3D56"/>
<path d="M341.094 359.38L341.066 364.61L346.289 364.638L346.317 359.408L341.094 359.38Z" fill="#3F3D56"/>
<path d="M351.539 359.436L351.511 364.667L356.734 364.695L356.762 359.464L351.539 359.436Z" fill="#3F3D56"/>
<path d="M364.33 364.736C365.426 363.083 366.375 361.338 367.167 359.52L361.984 359.492L361.956 364.723L364.33 364.736Z" fill="#3F3D56"/>
<path d="M273.174 364.245L273.145 369.475L278.368 369.503L278.396 364.273L273.174 364.245Z" fill="#3F3D56"/>
<path d="M283.619 364.301L283.59 369.531L288.813 369.559L288.841 364.329L283.619 364.301Z" fill="#3F3D56"/>
<path d="M294.063 364.357L294.035 369.588L299.258 369.616L299.286 364.385L294.063 364.357Z" fill="#3F3D56"/>
<path d="M304.509 364.413L304.48 369.644L309.703 369.672L309.731 364.442L304.509 364.413Z" fill="#3F3D56"/>
<path d="M314.954 364.47L314.925 369.7L320.148 369.728L320.176 364.498L314.954 364.47Z" fill="#3F3D56"/>
<path d="M325.399 364.526L325.37 369.756L330.593 369.784L330.621 364.554L325.399 364.526Z" fill="#3F3D56"/>
<path d="M335.845 364.581L335.817 369.812L341.039 369.84L341.067 364.61L335.845 364.581Z" fill="#3F3D56"/>
<path d="M346.289 364.638L346.26 369.869L351.483 369.897L351.511 364.666L346.289 364.638Z" fill="#3F3D56"/>
<path d="M356.705 369.925L360.085 369.943L361.939 367.92L361.956 364.723L356.734 364.694L356.705 369.925Z" fill="#3F3D56"/>
<path d="M278.368 369.503L278.342 374.42L273.119 374.392L273.117 374.706L273.091 379.623L273.091 379.658L278.313 379.686V379.651L278.34 374.734L283.562 374.762L283.591 369.531L278.368 369.503Z" fill="#3F3D56"/>
<path d="M288.813 369.56L288.785 374.791L294.007 374.819L294.035 369.588L288.813 369.56Z" fill="#3F3D56"/>
<path d="M299.258 369.616L299.23 374.847L304.452 374.875L304.48 369.644L299.258 369.616Z" fill="#3F3D56"/>
<path d="M309.703 369.672L309.675 374.903L314.897 374.931L314.925 369.7L309.703 369.672Z" fill="#3F3D56"/>
<path d="M320.148 369.728L320.12 374.959L325.342 374.987L325.37 369.756L320.148 369.728Z" fill="#3F3D56"/>
<path d="M330.593 369.785L330.565 375.015L335.787 375.043L335.815 369.813L330.593 369.785Z" fill="#3F3D56"/>
<path d="M341.039 369.84L341.011 375.071L346.234 375.099L346.262 369.868L341.039 369.84Z" fill="#3F3D56"/>
<path d="M351.455 375.128L353.467 375.138C354.582 374.467 355.658 373.732 356.689 372.937L356.705 369.925L351.483 369.897L351.455 375.128Z" fill="#3F3D56"/>
<path d="M283.562 374.762L283.536 379.714L288.758 379.742L288.785 374.79L283.562 374.762Z" fill="#3F3D56"/>
<path d="M294.007 374.819L293.981 379.771L299.203 379.799L299.23 374.847L294.007 374.819Z" fill="#3F3D56"/>
<path d="M304.452 374.875L304.426 379.827L309.648 379.855L309.675 374.903L304.452 374.875Z" fill="#3F3D56"/>
<path d="M314.897 374.931L314.871 379.883L320.093 379.911L320.12 374.959L314.897 374.931Z" fill="#3F3D56"/>
<path d="M325.342 374.987L325.316 379.939L330.538 379.968L330.565 375.015L325.342 374.987Z" fill="#3F3D56"/>
<path d="M335.761 379.996C336.959 380.002 338.157 379.946 339.35 379.828L340.985 379.625L341.01 375.072L335.787 375.043L335.761 379.996Z" fill="#3F3D56"/>
<path d="M346.215 378.417C348.016 377.847 349.767 377.126 351.449 376.263L351.455 375.128L346.232 375.1L346.215 378.417Z" fill="#3F3D56"/>
<path d="M294.092 359.127L294.064 364.357L299.286 364.386L299.314 359.155L294.092 359.127Z" fill="#7A6BBD"/>
<path d="M325.483 348.834L325.455 354.064L330.677 354.093L330.705 348.862L325.483 348.834Z" fill="#7A6BBD"/>
<path d="M274.199 348.558C273.778 350.275 273.491 352.022 273.34 353.784L278.452 353.811L278.48 348.581L274.199 348.558Z" fill="#7A6BBD"/>
<path d="M340.985 379.625C342.758 379.362 344.506 378.958 346.215 378.417L346.232 375.099L341.01 375.071L340.985 379.625Z" fill="#7A6BBD"/>
<path d="M330.677 354.093L330.649 359.323L335.872 359.351L335.9 354.121L330.677 354.093Z" fill="#7A6BBD"/>
<path d="M330.621 364.554L330.593 369.785L335.816 369.813L335.844 364.582L330.621 364.554Z" fill="#7A6BBD"/>
<path d="M356.874 338.541L356.846 343.772L362.068 343.8L362.096 338.569L356.874 338.541Z" fill="#7A6BBD"/>
<path d="M367.319 338.598L367.291 343.829L370.007 343.843L370.035 338.613L367.319 338.598Z" fill="#7A6BBD"/>
<path d="M351.623 343.744L351.595 348.975L356.818 349.003L356.846 343.772L351.623 343.744Z" fill="#7A6BBD"/>
<path d="M362.068 343.8L362.04 349.031L367.263 349.059L367.291 343.828L362.068 343.8Z" fill="#7A6BBD"/>
<path d="M356.818 349.003L356.79 354.233L362.012 354.262L362.04 349.031L356.818 349.003Z" fill="#7A6BBD"/>
<path d="M368.953 354.299C369.387 352.583 369.686 350.836 369.849 349.073L367.263 349.059L367.235 354.29L368.953 354.299Z" fill="#7A6BBD"/>
<path d="M351.567 354.205L351.539 359.436L356.762 359.464L356.79 354.234L351.567 354.205Z" fill="#7A6BBD"/>
<path d="M362.012 354.262L361.984 359.492L367.207 359.52L367.235 354.29L362.012 354.262Z" fill="#7A6BBD"/>
<path d="M356.762 359.464L356.734 364.695L361.956 364.723L361.984 359.492L356.762 359.464Z" fill="#7A6BBD"/>
<path d="M351.511 364.666L351.483 369.897L356.705 369.925L356.734 364.694L351.511 364.666Z" fill="#7A6BBD"/>
<path d="M364.33 364.735L361.956 364.723L361.939 367.921C362.797 366.906 363.596 365.843 364.33 364.735Z" fill="#7A6BBD"/>
<path d="M346.262 369.868L346.234 375.099L351.456 375.127L351.484 369.897L346.262 369.868Z" fill="#7A6BBD"/>
<path d="M357.099 372.616C358.146 371.784 359.142 370.892 360.084 369.943L356.705 369.925L356.689 372.937C356.827 372.831 356.964 372.724 357.099 372.616Z" fill="#7A6BBD"/>
<path d="M294.204 338.204L294.176 343.435L299.398 343.463L299.426 338.232L294.204 338.204Z" fill="#7A6BBD"/>
<path d="M304.649 338.261L304.621 343.491L309.843 343.519L309.871 338.289L304.649 338.261Z" fill="#7A6BBD"/>
<path d="M315.094 338.317L315.066 343.547L320.288 343.575L320.316 338.345L315.094 338.317Z" fill="#7A6BBD"/>
<path d="M325.539 338.373L325.511 343.604L330.733 343.632L330.761 338.401L325.539 338.373Z" fill="#7A6BBD"/>
<path d="M335.984 338.429L335.956 343.66L341.178 343.688L341.206 338.457L335.984 338.429Z" fill="#7A6BBD"/>
<path d="M346.429 338.485L346.401 343.716L351.623 343.744L351.651 338.513L346.429 338.485Z" fill="#7A6BBD"/>
<path d="M299.398 343.463L299.37 348.693L304.593 348.721L304.621 343.491L299.398 343.463Z" fill="#7A6BBD"/>
<path d="M309.843 343.519L309.815 348.75L315.038 348.778L315.066 343.547L309.843 343.519Z" fill="#7A6BBD"/>
<path d="M320.288 343.576L320.26 348.806L325.483 348.834L325.511 343.604L320.288 343.576Z" fill="#7A6BBD"/>
<path d="M330.733 343.632L330.705 348.862L335.928 348.89L335.956 343.66L330.733 343.632Z" fill="#7A6BBD"/>
<path d="M341.178 343.688L341.15 348.918L346.373 348.947L346.401 343.716L341.178 343.688Z" fill="#7A6BBD"/>
<path d="M283.703 348.609L283.675 353.84L288.897 353.868L288.925 348.637L283.703 348.609Z" fill="#7A6BBD"/>
<path d="M304.593 348.722L304.565 353.952L309.787 353.98L309.815 348.75L304.593 348.722Z" fill="#7A6BBD"/>
<path d="M315.038 348.778L315.01 354.008L320.232 354.036L320.26 348.806L315.038 348.778Z" fill="#7A6BBD"/>
<path d="M335.928 348.89L335.9 354.121L341.122 354.149L341.15 348.919L335.928 348.89Z" fill="#7A6BBD"/>
<path d="M346.373 348.947L346.345 354.177L351.567 354.205L351.595 348.975L346.373 348.947Z" fill="#7A6BBD"/>
<path d="M278.452 353.811L278.424 359.042L283.647 359.07L283.675 353.84L278.452 353.811Z" fill="#7A6BBD"/>
<path d="M288.897 353.868L288.869 359.099L294.092 359.127L294.12 353.896L288.897 353.868Z" fill="#7A6BBD"/>
<path d="M309.787 353.98L309.759 359.211L314.982 359.239L315.01 354.008L309.787 353.98Z" fill="#7A6BBD"/>
<path d="M320.232 354.036L320.204 359.267L325.427 359.295L325.455 354.065L320.232 354.036Z" fill="#7A6BBD"/>
<path d="M341.122 354.149L341.094 359.38L346.317 359.408L346.345 354.177L341.122 354.149Z" fill="#7A6BBD"/>
<path d="M273.202 359.014L273.174 364.245L278.396 364.273L278.424 359.042L273.202 359.014Z" fill="#7A6BBD"/>
<path d="M283.647 359.07L283.619 364.301L288.841 364.329L288.869 359.098L283.647 359.07Z" fill="#7A6BBD"/>
<path d="M275.943 343.336L278.508 343.35L278.745 338.121C277.678 339.784 276.742 341.528 275.943 343.336Z" fill="#7A6BBD"/>
<path d="M283.759 338.148L283.731 343.378L288.953 343.407L288.981 338.176L283.759 338.148Z" fill="#7A6BBD"/>
<path d="M278.508 343.35L278.48 348.581L283.703 348.609L283.731 343.379L278.508 343.35Z" fill="#7A6BBD"/>
<path d="M288.953 343.407L288.925 348.637L294.148 348.665L294.176 343.435L288.953 343.407Z" fill="#7A6BBD"/>
<path d="M294.148 348.665L294.12 353.896L299.342 353.924L299.37 348.693L294.148 348.665Z" fill="#7A6BBD"/>
<path d="M299.342 353.924L299.314 359.155L304.537 359.183L304.565 353.952L299.342 353.924Z" fill="#7A6BBD"/>
<path d="M304.537 359.183L304.509 364.414L309.731 364.442L309.759 359.211L304.537 359.183Z" fill="#7A6BBD"/>
<path d="M314.982 359.239L314.954 364.47L320.176 364.498L320.204 359.267L314.982 359.239Z" fill="#7A6BBD"/>
<path d="M325.427 359.295L325.399 364.526L330.621 364.554L330.649 359.323L325.427 359.295Z" fill="#7A6BBD"/>
<path d="M335.872 359.351L335.844 364.582L341.066 364.61L341.094 359.38L335.872 359.351Z" fill="#7A6BBD"/>
<path d="M346.317 359.408L346.289 364.639L351.511 364.667L351.539 359.436L346.317 359.408Z" fill="#7A6BBD"/>
<path d="M278.396 364.273L278.368 369.503L283.59 369.532L283.619 364.301L278.396 364.273Z" fill="#7A6BBD"/>
<path d="M288.841 364.329L288.813 369.56L294.035 369.588L294.064 364.357L288.841 364.329Z" fill="#7A6BBD"/>
<path d="M299.286 364.385L299.258 369.616L304.48 369.644L304.509 364.413L299.286 364.385Z" fill="#7A6BBD"/>
<path d="M309.731 364.442L309.703 369.672L314.926 369.7L314.954 364.47L309.731 364.442Z" fill="#7A6BBD"/>
<path d="M320.176 364.498L320.148 369.729L325.37 369.757L325.398 364.526L320.176 364.498Z" fill="#7A6BBD"/>
<path d="M341.066 364.61L341.038 369.841L346.261 369.869L346.289 364.638L341.066 364.61Z" fill="#7A6BBD"/>
<path d="M273.145 369.475L273.117 374.706L278.34 374.734L278.368 369.504L273.145 369.475Z" fill="#7A6BBD"/>
<path d="M283.59 369.532L283.562 374.762L288.785 374.79L288.813 369.56L283.59 369.532Z" fill="#7A6BBD"/>
<path d="M294.035 369.588L294.007 374.818L299.23 374.846L299.258 369.616L294.035 369.588Z" fill="#7A6BBD"/>
<path d="M304.48 369.644L304.452 374.875L309.675 374.903L309.703 369.672L304.48 369.644Z" fill="#7A6BBD"/>
<path d="M314.925 369.7L314.897 374.931L320.12 374.959L320.148 369.728L314.925 369.7Z" fill="#7A6BBD"/>
<path d="M325.37 369.757L325.342 374.987L330.565 375.015L330.593 369.785L325.37 369.757Z" fill="#7A6BBD"/>
<path d="M335.815 369.813L335.787 375.043L341.01 375.072L341.038 369.841L335.815 369.813Z" fill="#7A6BBD"/>
<path d="M278.34 374.734L278.313 379.687L283.536 379.715L283.562 374.762L278.34 374.734Z" fill="#7A6BBD"/>
<path d="M288.785 374.79L288.758 379.743L293.981 379.771L294.007 374.818L288.785 374.79Z" fill="#7A6BBD"/>
<path d="M299.23 374.846L299.203 379.799L304.426 379.827L304.452 374.875L299.23 374.846Z" fill="#7A6BBD"/>
<path d="M309.675 374.903L309.648 379.855L314.871 379.883L314.897 374.931L309.675 374.903Z" fill="#7A6BBD"/>
<path d="M320.12 374.959L320.093 379.911L325.316 379.939L325.342 374.987L320.12 374.959Z" fill="#7A6BBD"/>
<path d="M330.565 375.015L330.538 379.968L335.761 379.996L335.787 375.044L330.565 375.015Z" fill="#7A6BBD"/>
<path d="M353.467 375.138L351.455 375.127L351.449 376.262C352.136 375.911 352.809 375.536 353.467 375.138Z" fill="#7A6BBD"/>
<path d="M421.014 421.148L420.28 420.858L394.571 486.01C393.351 483.43 389.015 476.838 376.399 476.376C375.771 476.357 375.16 476.583 374.695 477.006C374.231 477.43 373.949 478.017 373.909 478.645L373.69 481.933C373.57 483.721 374.141 485.487 375.285 486.865C376.429 488.243 378.059 489.127 379.836 489.334C384.998 489.932 391.807 490.039 394.868 487.147L394.957 487.183L421.014 421.148Z" fill="#3F3D56"/>
</svg>
